<mxfile host="app.diagrams.net" agent="Mozilla/5.0 (Windows NT 10.0; Win64; x64) AppleWebKit/537.36 (KHTML, like Gecko) Chrome/129.0.0.0 Safari/537.36" version="24.7.17">
  <diagram name="Page-1" id="k-Z59OnOTL7-U0BORTe8">
    <mxGraphModel dx="472" dy="771" grid="1" gridSize="10" guides="1" tooltips="1" connect="1" arrows="1" fold="1" page="1" pageScale="1" pageWidth="850" pageHeight="1100" math="0" shadow="0">
      <root>
        <mxCell id="0" />
        <mxCell id="1" parent="0" />
        <mxCell id="_rB3d5Z7QbvN27Ab-UC5-3" value="" style="edgeStyle=orthogonalEdgeStyle;rounded=0;orthogonalLoop=1;jettySize=auto;html=1;" edge="1" parent="1" source="_rB3d5Z7QbvN27Ab-UC5-1" target="_rB3d5Z7QbvN27Ab-UC5-2">
          <mxGeometry relative="1" as="geometry" />
        </mxCell>
        <mxCell id="_rB3d5Z7QbvN27Ab-UC5-1" value="Start" style="ellipse;whiteSpace=wrap;html=1;" vertex="1" parent="1">
          <mxGeometry x="350" y="50" width="120" height="80" as="geometry" />
        </mxCell>
        <mxCell id="_rB3d5Z7QbvN27Ab-UC5-5" value="" style="edgeStyle=orthogonalEdgeStyle;rounded=0;orthogonalLoop=1;jettySize=auto;html=1;" edge="1" parent="1" source="_rB3d5Z7QbvN27Ab-UC5-2" target="_rB3d5Z7QbvN27Ab-UC5-4">
          <mxGeometry relative="1" as="geometry" />
        </mxCell>
        <mxCell id="_rB3d5Z7QbvN27Ab-UC5-2" value="base, height" style="shape=parallelogram;perimeter=parallelogramPerimeter;whiteSpace=wrap;html=1;fixedSize=1;" vertex="1" parent="1">
          <mxGeometry x="350" y="220" width="120" height="60" as="geometry" />
        </mxCell>
        <mxCell id="_rB3d5Z7QbvN27Ab-UC5-7" value="" style="edgeStyle=orthogonalEdgeStyle;rounded=0;orthogonalLoop=1;jettySize=auto;html=1;" edge="1" parent="1" source="_rB3d5Z7QbvN27Ab-UC5-4" target="_rB3d5Z7QbvN27Ab-UC5-6">
          <mxGeometry relative="1" as="geometry" />
        </mxCell>
        <mxCell id="_rB3d5Z7QbvN27Ab-UC5-4" value="area = base * height" style="whiteSpace=wrap;html=1;" vertex="1" parent="1">
          <mxGeometry x="350" y="360" width="120" height="60" as="geometry" />
        </mxCell>
        <mxCell id="_rB3d5Z7QbvN27Ab-UC5-9" value="" style="edgeStyle=orthogonalEdgeStyle;rounded=0;orthogonalLoop=1;jettySize=auto;html=1;" edge="1" parent="1" source="_rB3d5Z7QbvN27Ab-UC5-6" target="_rB3d5Z7QbvN27Ab-UC5-8">
          <mxGeometry relative="1" as="geometry" />
        </mxCell>
        <mxCell id="_rB3d5Z7QbvN27Ab-UC5-6" value="area" style="shape=parallelogram;perimeter=parallelogramPerimeter;whiteSpace=wrap;html=1;fixedSize=1;" vertex="1" parent="1">
          <mxGeometry x="350" y="500" width="120" height="60" as="geometry" />
        </mxCell>
        <mxCell id="_rB3d5Z7QbvN27Ab-UC5-8" value="End" style="ellipse;whiteSpace=wrap;html=1;" vertex="1" parent="1">
          <mxGeometry x="350" y="630" width="120" height="80" as="geometry" />
        </mxCell>
      </root>
    </mxGraphModel>
  </diagram>
</mxfile>
